<?xml version="1.0" encoding="UTF-8" standalone="no"?>
<!-- Uploaded to: SVG Repo, www.svgrepo.com, Transformed by: SVG Repo Mixer Tools -->

<svg
   width="800px"
   height="800px"
   viewBox="0 0 24 24"
   fill="none"
   version="1.1"
   id="svg2"
   sodipodi:docname="arrowUp.svg"
   inkscape:version="1.3 (0e150ed6c4, 2023-07-21)"
   xmlns:inkscape="http://www.inkscape.org/namespaces/inkscape"
   xmlns:sodipodi="http://sodipodi.sourceforge.net/DTD/sodipodi-0.dtd"
   xmlns="http://www.w3.org/2000/svg"
   xmlns:svg="http://www.w3.org/2000/svg">
  <defs
     id="defs2" />
  <sodipodi:namedview
     id="namedview2"
     pagecolor="#ffffff"
     bordercolor="#111111"
     borderopacity="1"
     inkscape:showpageshadow="0"
     inkscape:pageopacity="0"
     inkscape:pagecheckerboard="1"
     inkscape:deskcolor="#d1d1d1"
     inkscape:zoom="1.46625"
     inkscape:cx="328.38875"
     inkscape:cy="343.39301"
     inkscape:window-width="2560"
     inkscape:window-height="1369"
     inkscape:window-x="2552"
     inkscape:window-y="-8"
     inkscape:window-maximized="1"
     inkscape:current-layer="svg2" />
  <g
     id="SVGRepo_bgCarrier"
     stroke-width="0" />
  <g
     id="SVGRepo_tracerCarrier"
     stroke-linecap="round"
     stroke-linejoin="round" />
  <g
     id="SVGRepo_iconCarrier"
     transform="matrix(1.6445013,0,0,1.6445013,-7.7340156,-7.7340156)"
     style="stroke:#000000;stroke-opacity:1;stroke-width:0.7297045;stroke-dasharray:none">
    <path
       style="color:#000000;fill:#ffffff;stroke-linecap:round;stroke-linejoin:round;stroke:#000000;stroke-opacity:1;stroke-width:0.7297045;stroke-dasharray:none"
       d="m 12,7 a 1,1 0 0 0 -1,1 v 8 a 1,1 0 0 0 1,1 1,1 0 0 0 1,-1 V 8 A 1,1 0 0 0 12,7 Z"
       id="path1" />
    <path
       style="color:#000000;fill:#ffffff;stroke-linecap:round;stroke-linejoin:round;stroke:#000000;stroke-opacity:1;stroke-width:0.7297045;stroke-dasharray:none"
       d="m 12,7.0566406 c -0.289626,0 -0.579554,0.1085366 -0.794922,0.3242188 L 8.2929688,10.292969 a 1,1 0 0 0 0,1.414062 1,1 0 0 0 1.4140625,0 L 12,9.4140625 14.292969,11.707031 a 1,1 0 0 0 1.414062,0 1,1 0 0 0 0,-1.414062 L 12.794922,7.3808594 C 12.579554,7.1651772 12.289626,7.0566406 12,7.0566406 Z"
       id="path2" />
  </g>
  <rect
     style="fill:#ffffff;stroke:#ffffff;stroke-width:1.2;stroke-linecap:round;stroke-linejoin:round;stroke-dasharray:none;stroke-opacity:1"
     id="rect3"
     width="0.89002502"
     height="5.9437337"
     x="11.549872"
     y="6.6803069" />
</svg>
