<?xml version="1.0" encoding="UTF-8" standalone="no"?>
<!-- Uploaded to: SVG Repo, www.svgrepo.com, Generator: SVG Repo Mixer Tools -->

<svg
   width="800px"
   height="800px"
   viewBox="0 0 24 24"
   fill="none"
   version="1.1"
   id="svg1"
   sodipodi:docname="arrow.svg"
   inkscape:version="1.3 (0e150ed6c4, 2023-07-21)"
   xmlns:inkscape="http://www.inkscape.org/namespaces/inkscape"
   xmlns:sodipodi="http://sodipodi.sourceforge.net/DTD/sodipodi-0.dtd"
   xmlns="http://www.w3.org/2000/svg"
   xmlns:svg="http://www.w3.org/2000/svg">
  <defs
     id="defs1">
    <filter
       style="color-interpolation-filters:sRGB;"
       inkscape:label="Invert"
       id="filter5"
       x="-0.035490854"
       y="-0.027777778"
       width="1.0709817"
       height="1.0555556">
      <feColorMatrix
         values="-1 0 0 0 1 0 -1 0 0 1 0 0 -1 0 1 -0.21 -0.72 -0.07 1 0 "
         result="color2"
         id="feColorMatrix5" />
    </filter>
  </defs>
  <sodipodi:namedview
     id="namedview1"
     pagecolor="#ffffff"
     bordercolor="#111111"
     borderopacity="1"
     inkscape:showpageshadow="0"
     inkscape:pageopacity="0"
     inkscape:pagecheckerboard="1"
     inkscape:deskcolor="#d1d1d1"
     inkscape:zoom="1.01625"
     inkscape:cx="399.508"
     inkscape:cy="400"
     inkscape:window-width="2560"
     inkscape:window-height="1369"
     inkscape:window-x="2552"
     inkscape:window-y="-8"
     inkscape:window-maximized="1"
     inkscape:current-layer="svg1" />
  <path
     style="color:#000000;fill:#ffffff;stroke-linecap:round;stroke-linejoin:round;stroke:#000000;stroke-opacity:1;fill-opacity:1;stroke-width:0.9;stroke-dasharray:none;paint-order:normal"
     d="m 12,3 a 1,1 0 0 0 -0.707031,0.2929688 l -6.0000003,6 a 1,1 0 0 0 0,1.4140622 1,1 0 0 0 1.4140625,0 L 11,6.4140625 V 20 a 1,1 0 0 0 1,1 1,1 0 0 0 1,-1 V 6.4140625 l 4.292969,4.2929685 a 1,1 0 0 0 1.414062,0 1,1 0 0 0 0,-1.4140622 l -6,-6 A 1,1 0 0 0 12,3 Z"
     id="path1" />
</svg>
