<?xml version="1.0" encoding="UTF-8" standalone="no"?>
<!-- Uploaded to: SVG Repo, www.svgrepo.com, Generator: SVG Repo Mixer Tools -->

<svg
   fill="#000000"
   width="800px"
   height="800px"
   viewBox="-3.5 0 19 19"
   class="cf-icon-svg"
   version="1.1"
   id="svg1"
   sodipodi:docname="checkmark-svgrepo-com.svg"
   inkscape:version="1.3 (0e150ed6c4, 2023-07-21)"
   xmlns:inkscape="http://www.inkscape.org/namespaces/inkscape"
   xmlns:sodipodi="http://sodipodi.sourceforge.net/DTD/sodipodi-0.dtd"
   xmlns="http://www.w3.org/2000/svg"
   xmlns:svg="http://www.w3.org/2000/svg">
  <defs
     id="defs1" />
  <sodipodi:namedview
     id="namedview1"
     pagecolor="#ffffff"
     bordercolor="#111111"
     borderopacity="1"
     inkscape:showpageshadow="0"
     inkscape:pageopacity="0"
     inkscape:pagecheckerboard="1"
     inkscape:deskcolor="#d1d1d1"
     inkscape:zoom="1.46625"
     inkscape:cx="442.28474"
     inkscape:cy="284.73998"
     inkscape:window-width="2560"
     inkscape:window-height="1369"
     inkscape:window-x="2552"
     inkscape:window-y="-8"
     inkscape:window-maximized="1"
     inkscape:current-layer="svg1" />
  <g
     id="path1"
     style="stroke-width:2.01875;stroke-dasharray:none">
    <path
       id="path4"
       style="color:#000000;fill:#ffffff;stroke:#000000;stroke-opacity:1;stroke-width:2.01875;stroke-dasharray:none;stroke-linejoin:round;stroke-linecap:butt;paint-order:stroke fill markers"
       d="M 9.8339844 4.09375 C 9.8071432 4.0954116 9.7796746 4.1016733 9.753204 4.0940002 C 9.7311892 4.0912855 9.7102071 4.0996851 9.6887509 4.1032654 C 9.6656071 4.1048393 9.6434603 4.1133594 9.6210938 4.1171875 C 9.5969771 4.1201819 9.5762847 4.1335675 9.5527344 4.1386719 C 9.5311565 4.1437711 9.5118867 4.156826 9.4898833 4.1610077 C 9.4668074 4.1657241 9.4439135 4.1713422 9.4215692 4.1787874 C 9.3975225 4.1827631 9.3753143 4.1926258 9.3539647 4.2038209 C 9.3343083 4.2194306 9.3095644 4.2231374 9.2866324 4.2311359 C 9.2646526 4.2300892 9.2438632 4.2400773 9.2293519 4.2569763 C 9.2155746 4.2750909 9.1917477 4.2786932 9.174694 4.2923194 C 9.1540375 4.3038075 9.1374877 4.3216811 9.1176204 4.3346362 C 9.098148 4.3506279 9.0754927 4.3622654 9.0572504 4.3797786 C 9.041124 4.3946563 9.0237517 4.4107008 9.0163063 4.4318904 C 9.0029691 4.4487168 8.9973597 4.4714197 8.981281 4.4875347 C 8.9705244 4.5045663 8.9561126 4.519435 8.9550781 4.5410156 C 8.9416265 4.5593207 8.9307983 4.5792974 8.9179917 4.5976104 C 8.9063953 4.6110637 8.8838281 4.6126539 8.8831801 4.633663 C 8.8714881 4.652323 8.858972 4.6713523 8.8505095 4.691712 C 8.8395754 4.7098882 8.8227859 4.725044 8.8125 4.7441406 C 8.8013365 4.7647807 8.795452 4.7881606 8.7832375 4.8085249 C 8.7745882 4.8304775 8.7649941 4.8520832 8.7539407 4.872978 C 8.7408042 4.8936676 8.7271291 4.9143062 8.7148667 4.935501 C 8.7021425 4.9696579 8.6854421 5.0023789 8.6660156 5.0332031 C 8.6507999 5.0543141 8.6383539 5.0772585 8.6231792 5.0984343 C 8.6111665 5.1208134 8.5940558 5.139738 8.5809874 5.1614358 C 8.572265 5.1797955 8.5624678 5.1978923 8.5551162 5.2169559 C 8.5453544 5.2432906 8.5308628 5.2675168 8.515625 5.2910156 C 8.50721 5.3116744 8.4947901 5.3294702 8.4807106 5.3465364 C 8.4640703 5.3650715 8.4572808 5.3903285 8.4458269 5.4122684 C 8.4372135 5.4367734 8.4229076 5.4575999 8.4055859 5.4766862 C 8.3924265 5.492731 8.3874982 5.5142821 8.3713942 5.5281551 C 8.3516833 5.5520812 8.338235 5.5803635 8.3214172 5.6062827 C 8.3115378 5.6269937 8.3061031 5.6505865 8.291665 5.669056 C 8.2810129 5.6867772 8.2698874 5.7045799 8.2636719 5.7246094 C 8.2551902 5.7460896 8.2370721 5.7617679 8.2285156 5.7832031 C 8.2206699 5.8057423 8.2073121 5.8258134 8.1983301 5.8480132 C 8.1878826 5.871819 8.1702371 5.8916734 8.1577206 5.914444 C 8.1473357 5.9343726 8.1375533 5.9547532 8.1210938 5.9707031 C 8.1053649 5.9900203 8.0910881 6.0099934 8.077777 6.0310255 C 8.0653195 6.0531354 8.0459329 6.0715474 8.0380095 6.0960089 C 8.0292655 6.1169339 8.0130069 6.1343571 8.0064395 6.1564626 C 7.9994991 6.1768153 7.9915002 6.1975387 7.9778638 6.2144108 C 7.9654702 6.2348233 7.9498667 6.2530347 7.9368041 6.2729885 C 7.9239405 6.2948051 7.9120488 6.3172416 7.9004365 6.339752 C 7.8952914 6.3627972 7.8755115 6.3786804 7.8671875 6.4003906 C 7.8543058 6.420741 7.8438553 6.4428248 7.8363051 6.4656942 C 7.8267366 6.4867107 7.8122074 6.5048059 7.7982577 6.5230642 C 7.7847086 6.5455694 7.7744193 6.5703298 7.7621871 6.5938624 C 7.7543168 6.6161796 7.737719 6.6340593 7.7298983 6.6558767 C 7.7168304 6.6762992 7.7047266 6.6972244 7.6926635 6.718301 C 7.6814685 6.7404043 7.6649773 6.7586495 7.6523552 6.7792739 C 7.6409882 6.8006346 7.6298026 6.8220276 7.6182987 6.8432001 C 7.603869 6.8622744 7.5928682 6.8828463 7.5811424 6.9037014 C 7.568803 6.9266419 7.5538941 6.948102 7.5410386 6.9706572 C 7.5329892 6.9912962 7.5239538 7.011502 7.5141005 7.031409 C 7.5066862 7.0555742 7.4876168 7.0734492 7.4759106 7.0952702 C 7.462903 7.1137907 7.4427275 7.1280914 7.4365326 7.1507556 C 7.429718 7.1745264 7.4151464 7.1947185 7.4031243 7.2160168 C 7.387073 7.2408754 7.3757081 7.2681752 7.3632812 7.2949219 C 7.3551232 7.3170503 7.3347355 7.330491 7.3209619 7.3487435 C 7.3112603 7.3676824 7.3075476 7.3896852 7.2962231 7.4077702 C 7.2846085 7.4296058 7.2697199 7.4495516 7.256124 7.4703061 C 7.2359405 7.500902 7.2156727 7.5316622 7.1992188 7.5644531 C 7.1904682 7.5851289 7.1832973 7.606656 7.1699219 7.625 C 7.1457164 7.6605676 7.1245377 7.6980326 7.1015625 7.734375 C 7.0931168 7.7573698 7.064978 7.7685697 7.0566636 7.7929229 C 7.0468921 7.8132337 7.0289101 7.8283513 7.0175896 7.8476333 C 7.0056489 7.8713368 6.9931811 7.8948078 6.9847696 7.9200679 C 6.9733689 7.9499902 6.960815 7.9797539 6.9447421 8.0074392 C 6.9290244 8.0262664 6.923248 8.0511467 6.9075513 8.0698796 C 6.8952299 8.0874368 6.8803143 8.1041402 6.8750115 8.1249771 C 6.8659433 8.1458112 6.8492407 8.1632191 6.84375 8.1855469 C 6.8321097 8.2124579 6.8126084 8.2349094 6.8007927 8.2616958 C 6.790429 8.2849866 6.7736784 8.3044362 6.7618826 8.3269462 C 6.7504048 8.350056 6.7312312 8.3690487 6.7218635 8.3930034 C 6.7131496 8.4220681 6.6911716 8.4440098 6.677579 8.4705922 C 6.6664249 8.4927038 6.6509892 8.5129319 6.6445312 8.5371094 C 6.6349055 8.5597994 6.6175626 8.5778909 6.6033147 8.5975196 C 6.5888127 8.61801 6.5834456 8.6429111 6.5703125 8.6640625 C 6.5606763 8.6854417 6.5462973 8.7035743 6.5318994 8.7217904 C 6.5206371 8.7418118 6.511773 8.763417 6.4982887 8.7820833 C 6.4837369 8.8015892 6.4703073 8.8223367 6.4628906 8.8457031 C 6.4493683 8.8672837 6.4361703 8.8891075 6.4216741 8.9100196 C 6.407504 8.9286983 6.4025701 8.9520512 6.3883239 8.9704786 C 6.3758571 8.9895544 6.3670401 9.0106946 6.3574219 9.03125 C 6.3458488 9.0521599 6.3331506 9.0723979 6.3212218 9.0930764 C 6.307943 9.1131392 6.2979208 9.1352498 6.2816849 9.1532649 C 6.2694211 9.1741028 6.2566201 9.1948673 6.2456386 9.2165031 C 6.2341199 9.2371543 6.2207178 9.2567307 6.2086736 9.2771218 C 6.1973156 9.296214 6.1910737 9.3179318 6.1777344 9.3359375 C 6.165736 9.3571765 6.1513871 9.3766886 6.1347656 9.3945312 C 6.1203563 9.4122412 6.1125052 9.4337159 6.1054688 9.4550781 C 6.0995466 9.4767689 6.0756113 9.4871883 6.0722656 9.5097656 C 6.0652739 9.532167 6.0476493 9.5485605 6.0391084 9.5702207 C 6.027332 9.5940008 6.0159753 9.6180163 6.0009093 9.6399514 C 5.9872365 9.6592942 5.9740971 9.6791699 5.9654132 9.7013555 C 5.9589839 9.721576 5.9484402 9.7396722 5.9369296 9.7574392 C 5.922152 9.7744621 5.9116939 9.7940145 5.9023438 9.8144531 C 5.8920695 9.8372891 5.8820514 9.8605852 5.8660467 9.8801128 C 5.8509795 9.898304 5.844436 9.9216383 5.8307275 9.9405404 C 5.8210142 9.9587819 5.8160433 9.9798137 5.8027344 9.9960938 C 5.7890539 10.014458 5.7725011 10.031132 5.7635936 10.052665 C 5.7432457 10.09098 5.7230154 10.129401 5.702777 10.167744 C 5.6899409 10.186697 5.6768916 10.205296 5.6679688 10.226562 C 5.6564573 10.246214 5.6486765 10.268108 5.6308594 10.283203 C 5.6195395 10.304573 5.6118424 10.327864 5.5973756 10.347473 C 5.5840716 10.369224 5.5808869 10.396223 5.5644646 10.415993 C 5.5530212 10.436276 5.5382075 10.454698 5.5293198 10.476517 C 5.5096532 10.514649 5.4871573 10.551267 5.4648438 10.587891 C 5.4511116 10.607792 5.4397989 10.629372 5.4279772 10.650475 C 5.4194379 10.671892 5.4061504 10.690822 5.3920168 10.708618 C 5.3794431 10.734603 5.3643114 10.759257 5.3515625 10.785156 C 5.3375886 10.809241 5.3175207 10.829434 5.306675 10.8554 C 5.2966195 10.877007 5.2787372 10.893805 5.2695657 10.915947 C 5.2619875 10.939108 5.2433583 10.955146 5.2307106 10.975443 C 5.2210263 10.993864 5.2093923 11.011052 5.1992302 11.029274 C 5.1906583 11.05023 5.1746769 11.066826 5.1660615 11.087799 C 5.1572957 11.107182 5.1492856 11.127262 5.1355779 11.143785 C 5.1150782 11.169605 5.0993965 11.198656 5.0820312 11.226562 C 5.0733523 11.247217 5.0640807 11.266924 5.04907 11.284036 C 5.0344074 11.302426 5.0274838 11.325477 5.0151589 11.34537 C 5.0054421 11.36574 4.9921001 11.383839 4.9826117 11.404358 C 4.9727255 11.425776 4.961815 11.446832 4.9492188 11.466797 C 4.9370042 11.492317 4.919877 11.515172 4.9082031 11.541016 C 4.8944788 11.561246 4.8891661 11.585568 4.874652 11.605244 C 4.8621804 11.62604 4.8500279 11.647402 4.8320312 11.664062 C 4.8101562 11.676397 4.7938027 11.696906 4.7723502 11.710288 C 4.7564298 11.725112 4.7304406 11.711674 4.7167969 11.699219 C 4.7039322 11.679251 4.6843295 11.665203 4.6699219 11.646484 C 4.6549804 11.628116 4.6454536 11.604707 4.6263918 11.589282 C 4.6005607 11.568554 4.5815516 11.540975 4.5574769 11.518414 C 4.5376349 11.503527 4.5318739 11.477831 4.5142274 11.461493 C 4.4875133 11.435385 4.4630614 11.406792 4.442737 11.375411 C 4.429098 11.353167 4.4103862 11.335856 4.3929948 11.316892 C 4.3625003 11.284477 4.3330455 11.251098 4.3046875 11.216797 C 4.2872722 11.200756 4.2764523 11.178975 4.265625 11.158203 C 4.255894 11.133453 4.2271619 11.123931 4.215753 11.100283 C 4.1999974 11.073888 4.1759429 11.054243 4.1564521 11.030824 C 4.1346213 11.00683 4.1140031 10.981762 4.0939583 10.956298 C 4.0785627 10.940705 4.0677864 10.921755 4.0507812 10.908203 C 4.0319404 10.892675 4.0198837 10.872369 4.0048955 10.853532 C 3.9895272 10.835648 3.9774597 10.814951 3.9628906 10.796875 C 3.9486029 10.779614 3.9354942 10.762522 3.9257812 10.742188 C 3.9106202 10.721717 3.891223 10.704706 3.8751414 10.684871 C 3.8349377 10.639217 3.7952976 10.593036 3.7547425 10.547711 C 3.7317955 10.525148 3.7130915 10.49841 3.6875 10.478516 C 3.6693511 10.461966 3.6554313 10.441967 3.6431394 10.42082 C 3.626189 10.392843 3.6089635 10.365029 3.589039 10.33903 C 3.5728119 10.320914 3.5521269 10.305809 3.5403197 10.283652 C 3.5270572 10.262498 3.5078417 10.245948 3.4878212 10.231223 C 3.472367 10.214182 3.4577242 10.195888 3.4433594 10.177734 C 3.4301625 10.155682 3.4108522 10.138369 3.3955331 10.117867 C 3.3725846 10.095172 3.3573223 10.066495 3.3378906 10.041016 C 3.3230964 10.022093 3.297016 10.014652 3.2884597 9.9906443 C 3.2733404 9.9612536 3.2498104 9.9373475 3.2295979 9.911479 C 3.2146753 9.8929898 3.2001931 9.8742231 3.1824769 9.8582581 C 3.1660773 9.8417588 3.1524955 9.822667 3.1380175 9.804466 C 3.1176743 9.7821291 3.0926164 9.7646074 3.0722656 9.7421875 C 3.0548497 9.7257245 3.0396267 9.7067329 3.0195312 9.6933594 C 2.9991288 9.6801893 2.9847889 9.660029 2.96568 9.6453675 C 2.9501704 9.6243489 2.9354541 9.6020284 2.9109028 9.590656 C 2.8896226 9.5777888 2.8734791 9.5586709 2.8541178 9.5432515 C 2.8332037 9.5296989 2.8134396 9.5143075 2.7929688 9.5 C 2.7744464 9.4871341 2.7525951 9.480116 2.7354949 9.4650856 C 2.7181592 9.4483834 2.6958435 9.438652 2.67708 9.4238256 C 2.6570338 9.4095964 2.6358022 9.397051 2.6131856 9.3873242 C 2.583818 9.3740821 2.5584108 9.3535598 2.5292969 9.3398438 C 2.508056 9.3297246 2.4841521 9.3318065 2.4612552 9.3281603 C 2.4388309 9.3245771 2.4164808 9.3223349 2.3945312 9.3164062 C 2.3718033 9.3113239 2.3486546 9.3091801 2.3261719 9.3027344 C 2.3008343 9.3003968 2.2766537 9.2912905 2.2511354 9.2900567 C 2.2164543 9.285478 2.181423 9.2847802 2.1464844 9.2851562 C 2.1220257 9.2811113 2.0969803 9.2841552 2.0722656 9.2832031 C 2.0488953 9.2863379 2.0260661 9.2739801 2.0032422 9.2831337 C 1.9793971 9.2897108 1.9556574 9.2969233 1.9312752 9.3015579 C 1.9070543 9.3040135 1.8864697 9.3180039 1.8632812 9.3242188 C 1.8387536 9.3295921 1.8166216 9.3415306 1.7925435 9.348449 C 1.7697295 9.3549899 1.7483878 9.3655587 1.7262445 9.3741427 C 1.7046261 9.3801411 1.685499 9.3919976 1.6638499 9.3978573 C 1.642098 9.4052194 1.6234576 9.4181172 1.601063 9.4244186 C 1.5793892 9.4295293 1.5620162 9.4442218 1.540803 9.4505917 C 1.5194683 9.4582023 1.4984356 9.4674588 1.4794137 9.4799074 C 1.459631 9.4913928 1.4422844 9.5065909 1.4263368 9.5228819 C 1.3959772 9.5523826 1.3717841 9.5875686 1.34068 9.6163513 C 1.3241136 9.6326239 1.3095351 9.6505262 1.2964198 9.6696281 C 1.2798501 9.6937696 1.2614455 9.716613 1.2441406 9.7402344 C 1.2262502 9.7561511 1.2195603 9.780018 1.203125 9.796875 C 1.1869685 9.8145868 1.1719122 9.8332705 1.1614879 9.8550249 C 1.1509613 9.8783875 1.1318563 9.8967463 1.1217751 9.9201716 C 1.1090689 9.9394334 1.0981234 9.9597153 1.0873202 9.9800955 C 1.0720274 10.000497 1.0641427 10.025464 1.0573878 10.049745 C 1.050185 10.071464 1.0533146 10.096127 1.0390625 10.115234 C 1.0309437 10.137376 1.0393324 10.16145 1.03125 10.183594 C 1.0249996 10.209481 1.0211458 10.235834 1.0166363 10.262051 C 1.0098226 10.28516 1.0075339 10.308923 1.0065845 10.332815 C 1.0017766 10.356626 1.0046985 10.381039 1.0039062 10.405168 C 1.0053648 10.428432 1.001674 10.451411 1.0019531 10.474609 C 1.004725 10.497186 1.0038095 10.520127 1.0039062 10.542969 C 1.0082832 10.566891 1.0152874 10.5906 1.0214844 10.613717 C 1.0239571 10.635901 1.0310251 10.657647 1.0351562 10.679688 C 1.039269 10.702414 1.0536991 10.721042 1.0629552 10.741894 C 1.0722562 10.763475 1.0740202 10.787857 1.0857477 10.808655 C 1.0936581 10.829382 1.1027931 10.849462 1.1132812 10.869141 C 1.1231938 10.891011 1.1220758 10.91647 1.1340064 10.937745 C 1.1408701 10.959911 1.1553539 10.979794 1.1634931 11.002137 C 1.1715285 11.023182 1.1771216 11.045181 1.1900144 11.064087 C 1.2057898 11.089776 1.220824 11.116047 1.2382812 11.140625 C 1.2581592 11.156555 1.2694723 11.180964 1.2880153 11.19858 C 1.3071368 11.2152 1.3131002 11.241487 1.3320312 11.257812 C 1.349296 11.277298 1.3623529 11.300787 1.3842795 11.31599 C 1.4037699 11.334854 1.4187734 11.357763 1.436306 11.37839 C 1.4542102 11.398634 1.47285 11.418445 1.4880613 11.440929 C 1.5048295 11.464603 1.5224264 11.487619 1.541888 11.509156 C 1.5562124 11.527885 1.5745469 11.543041 1.5878906 11.5625 C 1.604285 11.584073 1.6175835 11.608313 1.6381163 11.626398 C 1.6556626 11.643222 1.6707254 11.662346 1.6886169 11.678851 C 1.7053146 11.696804 1.7180613 11.71802 1.7349454 11.735955 C 1.7523412 11.759295 1.7632953 11.787151 1.7840755 11.807984 C 1.7979287 11.826617 1.8203963 11.836857 1.8320312 11.857422 C 1.8467818 11.878289 1.8627658 11.898212 1.8822027 11.914935 C 1.90088 11.930782 1.9148618 11.951339 1.9303394 11.97027 C 1.9480724 11.992783 1.9630143 12.01769 1.984375 12.037109 C 2.000093 12.055912 2.0147413 12.075464 2.0332031 12.091797 C 2.0532212 12.107175 2.0674875 12.128841 2.0800552 12.150345 C 2.0883327 12.172326 2.110294 12.182433 2.125 12.199219 C 2.1424946 12.21714 2.1604416 12.235268 2.1732668 12.256914 C 2.1837401 12.278513 2.2047161 12.291583 2.21875 12.310547 C 2.2337039 12.329824 2.2468475 12.351425 2.2628356 12.370258 C 2.2802555 12.384576 2.2950852 12.402442 2.3066406 12.421875 C 2.3248312 12.442885 2.3418241 12.464915 2.3600269 12.485895 C 2.3763116 12.508935 2.3988854 12.526844 2.4140625 12.550781 C 2.4304702 12.571498 2.4497989 12.589771 2.4659846 12.610582 C 2.478623 12.630593 2.4956253 12.647165 2.5097656 12.666016 C 2.527155 12.684352 2.5366604 12.708964 2.5540381 12.72765 C 2.5704982 12.742247 2.5881268 12.757188 2.5976448 12.777321 C 2.6089868 12.797835 2.6299843 12.8104 2.6456481 12.827289 C 2.6649236 12.842957 2.6759419 12.866042 2.6929265 12.883464 C 2.7089391 12.899183 2.7240669 12.916689 2.737024 12.935098 C 2.7505526 12.955587 2.7721282 12.969646 2.784344 12.991441 C 2.7979465 13.012083 2.8110116 13.033466 2.8295226 13.050226 C 2.8445486 13.068217 2.8618775 13.084674 2.8740907 13.104795 C 2.8876855 13.125365 2.9072333 13.141132 2.9218775 13.160811 C 2.9389089 13.176914 2.9491448 13.198041 2.9628906 13.216797 C 2.9868692 13.248658 3.011901 13.279782 3.0382263 13.309711 C 3.0615121 13.331938 3.0828837 13.356005 3.1054688 13.378906 C 3.1238235 13.406286 3.147852 13.429082 3.1679688 13.455078 C 3.1926231 13.477153 3.2101443 13.505495 3.2313746 13.530611 C 3.2484468 13.550821 3.2649885 13.571402 3.2846007 13.589288 C 3.3020975 13.606085 3.3142305 13.627486 3.3275637 13.647539 C 3.3435358 13.666707 3.3608068 13.68508 3.3730469 13.707031 C 3.3901473 13.728322 3.4096483 13.747405 3.4286068 13.766968 C 3.4436058 13.784717 3.4563919 13.803954 3.4707031 13.822266 C 3.4833412 13.843164 3.4989967 13.861149 3.515625 13.878906 C 3.5324137 13.896016 3.5422211 13.917966 3.5571395 13.936579 C 3.5705095 13.954458 3.5827402 13.973406 3.5996094 13.988281 C 3.6173344 14.005289 3.6339537 14.023339 3.6506713 14.041296 C 3.6717478 14.062517 3.6941949 14.083074 3.7096362 14.108942 C 3.7237967 14.129613 3.7408442 14.14778 3.7578125 14.166016 C 3.7782172 14.188404 3.7997519 14.209693 3.8188151 14.233279 C 3.841398 14.260488 3.8633153 14.288292 3.8847656 14.316406 C 3.9030575 14.332331 3.9157488 14.353062 3.9316406 14.371094 C 3.9501253 14.386091 3.9645722 14.4053 3.9795989 14.423717 C 3.994014 14.445013 4.0168408 14.45808 4.0337645 14.477124 C 4.0533668 14.48859 4.0678156 14.50618 4.0846599 14.521343 C 4.1090604 14.543564 4.1318033 14.567728 4.1584975 14.587345 C 4.1755735 14.604919 4.1983969 14.61523 4.216364 14.631511 C 4.234676 14.647083 4.2499413 14.666283 4.2701856 14.67969 C 4.2886242 14.692087 4.3067376 14.704742 4.3214294 14.72182 C 4.3422004 14.735196 4.3620034 14.751032 4.3843557 14.762322 C 4.4065993 14.775269 4.4332592 14.779969 4.4519832 14.798528 C 4.4713266 14.814876 4.4943306 14.826258 4.5175781 14.835938 C 4.5410005 14.841882 4.5652342 14.844774 4.5878906 14.853516 C 4.6103678 14.858011 4.6327111 14.863833 4.6542739 14.871082 C 4.6764893 14.87937 4.6975018 14.894284 4.7224448 14.890625 C 4.7445218 14.890278 4.7666153 14.890296 4.7881055 14.895404 C 4.811012 14.901791 4.8348143 14.900461 4.8582927 14.902344 C 4.8809816 14.903329 4.9040718 14.900262 4.9264835 14.904047 C 4.948652 14.909938 4.9716977 14.906609 4.9941406 14.910156 C 5.017759 14.910381 5.0415534 14.907241 5.0646657 14.902924 C 5.0870267 14.895991 5.1101433 14.890033 5.1332479 14.886719 C 5.1613505 14.88881 5.1860655 14.872412 5.2128906 14.867188 C 5.2345141 14.861379 5.252841 14.851385 5.2714844 14.839844 C 5.2931246 14.83258 5.3138291 14.823169 5.3339844 14.8125 C 5.3557061 14.807451 5.3784341 14.802723 5.3964614 14.789074 C 5.4152422 14.779001 5.4371982 14.776804 5.4570083 14.769543 C 5.4761859 14.757156 5.4942358 14.741946 5.5180034 14.741395 C 5.5397236 14.734101 5.5596199 14.722213 5.5781021 14.708996 C 5.5976705 14.697222 5.6113016 14.678419 5.6289062 14.664062 C 5.6495308 14.65424 5.6641988 14.635498 5.674872 14.615908 C 5.6898841 14.597153 5.7059665 14.578979 5.7216039 14.560631 C 5.7426532 14.537665 5.7623846 14.513517 5.7851562 14.492188 C 5.8055556 14.466782 5.8199436 14.436709 5.84375 14.414062 C 5.8539324 14.394296 5.86541 14.375283 5.8819763 14.360211 C 5.8997298 14.344947 5.9082411 14.32222 5.9210388 14.303571 C 5.9412217 14.287763 5.9522218 14.264938 5.9628562 14.242256 C 5.9745013 14.222312 5.98974 14.20438 5.9999885 14.183617 C 6.006555 14.164123 6.0121076 14.142234 6.0292969 14.128906 C 6.0474114 14.112058 6.0545564 14.087551 6.0663718 14.066475 C 6.077301 14.044229 6.0894479 14.022661 6.0997659 14.000138 C 6.1155389 13.970247 6.1316845 13.940548 6.1464844 13.910156 C 6.1590786 13.889852 6.1792859 13.875209 6.1894417 13.853539 C 6.2004845 13.833855 6.2025692 13.81094 6.2181006 13.793835 C 6.2326314 13.778204 6.2427079 13.759431 6.2519302 13.74028 C 6.2636258 13.719143 6.2793404 13.700192 6.2890281 13.677803 C 6.3038129 13.657441 6.3172733 13.636392 6.3222542 13.611351 C 6.3286704 13.590281 6.3475206 13.576515 6.3574219 13.556641 C 6.3713066 13.537673 6.3775441 13.514276 6.3925781 13.496094 C 6.40896 13.476032 6.4204903 13.453049 6.4315833 13.429802 C 6.4390261 13.408185 6.4569455 13.392934 6.466554 13.372963 C 6.4734581 13.350242 6.4886128 13.33222 6.4980239 13.310593 C 6.5052052 13.288408 6.5211755 13.271735 6.5336583 13.252247 C 6.5468646 13.232068 6.5586917 13.210327 6.5660656 13.187375 C 6.5756176 13.166127 6.5904902 13.147919 6.604426 13.129494 C 6.6167489 13.108357 6.6263223 13.085636 6.6386719 13.064453 C 6.6509173 13.04336 6.6618216 13.021287 6.6751319 13.000866 C 6.690578 12.981685 6.7031301 12.96044 6.71875 12.941406 C 6.7321975 12.921172 6.7404538 12.898286 6.752649 12.877402 C 6.7650478 12.85763 6.771437 12.834755 6.7838326 12.814927 C 6.7988279 12.788861 6.8137495 12.762724 6.828125 12.736328 C 6.8374925 12.71738 6.8447451 12.696617 6.8596557 12.68136 C 6.8745304 12.666132 6.882892 12.645892 6.8925552 12.626999 C 6.9043887 12.602033 6.9240501 12.58182 6.9355469 12.556641 C 6.948272 12.535076 6.9582342 12.511994 6.9706917 12.490257 C 6.9801877 12.467652 6.997313 12.449829 7.0078125 12.427734 C 7.0229568 12.400762 7.0389557 12.374287 7.0546875 12.347656 C 7.0627702 12.327535 7.0676149 12.305169 7.081195 12.287946 C 7.0963622 12.266506 7.111288 12.244511 7.1250397 12.221991 C 7.1377398 12.200907 7.1498748 12.17959 7.162075 12.158272 C 7.1715948 12.138243 7.1786717 12.117175 7.1894302 12.097702 C 7.2040606 12.080342 7.2196268 12.063309 7.2306241 12.04308 C 7.2426426 12.022751 7.2578017 12.004603 7.2617188 11.980469 C 7.2714657 11.959755 7.2881273 11.94359 7.2982668 11.922773 C 7.3083834 11.901301 7.3223115 11.881957 7.3339844 11.861328 C 7.350447 11.840616 7.3612954 11.816466 7.3730469 11.792969 C 7.3846736 11.772591 7.4019428 11.755997 7.4128053 11.734824 C 7.4221905 11.71526 7.439417 11.701134 7.4448838 11.679529 C 7.4525567 11.656049 7.4738509 11.640596 7.4830247 11.617597 C 7.4917396 11.596002 7.5004974 11.574113 7.5153831 11.555807 C 7.5286987 11.537807 7.5338904 11.515337 7.5455737 11.496527 C 7.5604036 11.478566 7.5691425 11.456717 7.5846387 11.439232 C 7.5975718 11.421564 7.6095916 11.403441 7.621655 11.385132 C 7.6308559 11.364459 7.6375832 11.342408 7.6484375 11.322266 C 7.6607299 11.301398 7.6711069 11.279621 7.687848 11.261943 C 7.6999258 11.242094 7.7112515 11.221281 7.7178499 11.198913 C 7.721711 11.175893 7.7412066 11.160903 7.7539062 11.142578 C 7.7691177 11.12161 7.7771109 11.097051 7.7894539 11.074564 C 7.8022172 11.049136 7.8216467 11.027738 7.8342362 11.002143 C 7.8469457 10.980492 7.8588385 10.95854 7.8691062 10.935616 C 7.8786826 10.91778 7.8836534 10.895204 7.9003906 10.882812 C 7.9139393 10.863233 7.9272823 10.843008 7.9411058 10.823407 C 7.955869 10.803654 7.9629022 10.77916 7.9785042 10.759789 C 7.9893659 10.73843 8.0005222 10.717276 8.0140738 10.697539 C 8.0287559 10.66944 8.0425652 10.640769 8.0605671 10.614552 C 8.0791411 10.585728 8.1004499 10.55843 8.1152344 10.527344 C 8.1284177 10.507371 8.1402758 10.486655 8.1503447 10.464936 C 8.1605579 10.442217 8.1779203 10.423684 8.1880263 10.400808 C 8.2017544 10.378318 8.2108718 10.353604 8.222972 10.330329 C 8.2356214 10.306009 8.2494227 10.282304 8.2617188 10.257812 C 8.2657474 10.233757 8.2931798 10.223687 8.3006475 10.201136 C 8.3120301 10.178611 8.3182118 10.154022 8.3315455 10.132644 C 8.3432596 10.111051 8.3601672 10.092642 8.3716642 10.070686 C 8.3862741 10.050536 8.401901 10.031549 8.4146653 10.010176 C 8.4241433 9.9885201 8.4318319 9.96622 8.4426001 9.9450676 C 8.4576847 9.9268332 8.4676927 9.9057726 8.4784927 9.8848115 C 8.4873927 9.8629207 8.502595 9.844895 8.5154927 9.8253938 C 8.525717 9.8048138 8.5358655 9.7839736 8.5475709 9.7641209 C 8.5646638 9.7386571 8.5771064 9.7105576 8.5922179 9.6839279 C 8.6056166 9.6613697 8.6181905 9.6382309 8.6320002 9.615981 C 8.6444712 9.5937128 8.6641092 9.5753967 8.671875 9.5507812 C 8.6810448 9.5294659 8.6938267 9.5104517 8.7064699 9.4911325 C 8.7205833 9.4712378 8.7281616 9.4476781 8.7421875 9.4277344 C 8.7523059 9.406111 8.761559 9.3839995 8.7734375 9.3632812 C 8.7953897 9.3264504 8.8172381 9.289545 8.8378906 9.2519531 C 8.8523577 9.2316247 8.8579475 9.2059626 8.8763037 9.1883658 C 8.8857371 9.1716257 8.8927185 9.1533703 8.9029956 9.1371517 C 8.9172876 9.1173749 8.9287201 9.0957438 8.9446631 9.0770377 C 8.9693643 9.0460311 8.9906122 9.0125465 9.0099231 8.9779666 C 9.0227326 8.9566276 9.0310355 8.9329149 9.0452698 8.9123339 C 9.0583934 8.8935807 9.0676583 8.8726635 9.0800781 8.8535156 C 9.0952034 8.827931 9.1098178 8.8020247 9.1233948 8.7756151 C 9.1367406 8.753287 9.1519083 8.7319807 9.1640625 8.7089844 C 9.1744805 8.6873774 9.1802322 8.663843 9.1916869 8.6427614 C 9.2042962 8.6199546 9.2196678 8.5988646 9.232888 8.5765047 C 9.2513749 8.5414844 9.2696459 8.5063503 9.287075 8.470772 C 9.3008968 8.448328 9.3179968 8.4279264 9.33315 8.4063224 C 9.3490347 8.3883942 9.3558547 8.3652155 9.3691406 8.3457031 C 9.3887692 8.3225399 9.4003324 8.2943094 9.4140625 8.2675781 C 9.4236647 8.2468405 9.4251543 8.2223189 9.4414062 8.2050781 C 9.453308 8.1849007 9.4748792 8.1726627 9.4863167 8.1523667 C 9.4983094 8.1313524 9.509519 8.1100015 9.5194968 8.0879595 C 9.5281886 8.0651184 9.5398207 8.0435596 9.5506895 8.0216679 C 9.5614868 7.9978778 9.5813562 7.9798973 9.59375 7.9570312 C 9.6088496 7.9385358 9.62112 7.9183128 9.6308364 7.8965303 C 9.6417633 7.8729494 9.6546952 7.8504614 9.6683706 7.8283983 C 9.6809835 7.80671 9.6930807 7.7846908 9.703125 7.7617188 C 9.7135339 7.7386043 9.73166 7.7202753 9.7421416 7.6973574 C 9.7548196 7.6721551 9.7651696 7.6455941 9.7802073 7.6216813 C 9.7916363 7.6004881 9.8054617 7.5807785 9.8186701 7.5607688 C 9.8317749 7.5367174 9.8412473 7.5108371 9.853175 7.4862032 C 9.8646229 7.464315 9.8770916 7.442606 9.8925806 7.4231738 C 9.9058385 7.4023336 9.918385 7.3809262 9.9335938 7.3613281 C 9.9490117 7.3417245 9.9567843 7.3174641 9.9707031 7.296875 C 9.9813087 7.2775686 9.9990812 7.2619915 10.004573 7.2397574 C 10.010581 7.2168121 10.025134 7.1980239 10.040366 7.1805533 C 10.054594 7.1620471 10.051411 7.1358162 10.067798 7.1180856 C 10.079842 7.0991593 10.093276 7.0816198 10.10154 7.0605928 C 10.11715 7.0423871 10.13232 7.0244523 10.145897 7.0047875 C 10.160894 6.9865258 10.167001 6.9630286 10.181399 6.9444792 C 10.196906 6.9180731 10.207565 6.8888605 10.224609 6.8632812 C 10.240787 6.8444141 10.255087 6.8242149 10.267578 6.8027344 C 10.280705 6.7827607 10.285803 6.7590143 10.29731 6.7377915 C 10.303426 6.7163756 10.320414 6.7012517 10.330233 6.6817516 C 10.3438 6.6565677 10.361006 6.6335035 10.373299 6.6076113 C 10.386586 6.5850925 10.392675 6.5584621 10.410391 6.5385863 C 10.425396 6.5220861 10.435366 6.5022009 10.445757 6.4827196 C 10.45933 6.4605618 10.470992 6.4373746 10.482422 6.4140625 C 10.497527 6.3961086 10.506898 6.3733839 10.515435 6.3515013 C 10.523742 6.3290809 10.537638 6.3095675 10.544899 6.2871553 C 10.557276 6.2624004 10.569654 6.2376455 10.582031 6.2128906 C 10.601154 6.1906191 10.616588 6.1655529 10.634766 6.1425781 C 10.646873 6.1243021 10.6568 6.1056679 10.662109 6.0839844 C 10.672247 6.0640947 10.692266 6.052382 10.701172 6.03125 C 10.716525 6.0000778 10.736806 5.9716407 10.754187 5.9415896 C 10.768725 5.9227067 10.77342 5.8984842 10.787109 5.8789062 C 10.800623 5.8559942 10.817713 5.8352495 10.828114 5.8105698 C 10.8385 5.789384 10.851774 5.7698173 10.861282 5.7481387 C 10.872343 5.7321413 10.875972 5.712483 10.889242 5.6976389 C 10.912359 5.6666054 10.927071 5.6305664 10.943336 5.595749 C 10.954462 5.5742259 10.954915 5.5497072 10.956516 5.5261172 C 10.954945 5.503887 10.961852 5.4828424 10.9685 5.4621884 C 10.975016 5.4407206 10.969907 5.417921 10.976562 5.3964844 C 10.984652 5.3750626 10.979129 5.3504118 10.990234 5.3300781 C 10.992934 5.2998235 10.999635 5.269864 10.998047 5.2393635 C 10.996186 5.2165225 11.001187 5.1941659 10.999521 5.1714661 C 10.997799 5.1484773 10.993978 5.1258535 10.988281 5.1035156 C 10.982354 5.0800951 10.976843 5.0572514 10.974609 5.0332031 C 10.973624 5.0099867 10.9686 4.9862337 10.959713 4.9645906 C 10.948559 4.9455062 10.944441 4.9234714 10.933594 4.9042969 C 10.923762 4.8822673 10.925068 4.856723 10.912155 4.8360293 C 10.903301 4.8137086 10.895009 4.7913821 10.885447 4.7692815 C 10.875362 4.743448 10.864525 4.7178958 10.851562 4.6933594 C 10.835634 4.6773578 10.833911 4.6530603 10.826183 4.6328354 C 10.814178 4.6133287 10.809035 4.5888764 10.791852 4.5731019 C 10.77221 4.5557386 10.760076 4.5320574 10.743024 4.512555 C 10.712529 4.4816018 10.681851 4.4504074 10.645651 4.4260231 C 10.626615 4.4137054 10.611117 4.3970642 10.59375 4.3828125 C 10.569721 4.3711687 10.551986 4.3503904 10.533203 4.3320312 C 10.516255 4.3177931 10.49604 4.308319 10.478516 4.2949219 C 10.460375 4.2762418 10.438508 4.2619175 10.417969 4.2460938 C 10.385787 4.2335099 10.35754 4.2130765 10.328498 4.1947421 C 10.307603 4.1803009 10.28801 4.1629601 10.263195 4.1555829 C 10.241036 4.1475316 10.216693 4.1482884 10.194836 4.1399579 C 10.172242 4.1323811 10.148681 4.1289671 10.125 4.1269531 C 10.097557 4.1207141 10.069941 4.1152256 10.042592 4.1086612 C 10.007663 4.1029908 9.9728181 4.0965172 9.9375 4.09375 C 9.9149206 4.0877806 9.891982 4.0978167 9.8691406 4.0917969 C 9.857728 4.0930117 9.8445675 4.0893541 9.8339844 4.09375 z " />
  </g>
  <path
     style="fill:#000000;stroke:none;stroke-width:0.02375px;stroke-linecap:butt;stroke-linejoin:miter;stroke-opacity:1;fill-opacity:1"
     d="m 9.091752,4.3602409 0.046569,-0.05568 0.044544,-0.042519 0.052643,-0.016198 -0.03442,-0.035433 -0.1589407,0.071878 z"
     id="path5" />
  <path
     style="fill:none;stroke:none;stroke-width:0.02375px;stroke-linecap:butt;stroke-linejoin:miter;stroke-opacity:1"
     d="M 9.0674215,3.6021454 8.9485908,3.6579816 8.8226015,3.7438833 8.7281098,3.8383752 8.6393446,3.9457523 8.4704045,4.0917851 8.5219455,3.8383752 8.8698476,3.5835335 Z"
     id="path6" />
</svg>
