<?xml version="1.0" encoding="UTF-8" standalone="no"?>
<!-- Uploaded to: SVG Repo, www.svgrepo.com, Transformed by: SVG Repo Mixer Tools -->

<svg
   width="800px"
   height="800px"
   viewBox="0 0 24 24"
   fill="none"
   stroke="#ffffff"
   version="1.1"
   id="svg2"
   sodipodi:docname="enterIconLightOutline.svg"
   inkscape:version="1.3 (0e150ed6c4, 2023-07-21)"
   xmlns:inkscape="http://www.inkscape.org/namespaces/inkscape"
   xmlns:sodipodi="http://sodipodi.sourceforge.net/DTD/sodipodi-0.dtd"
   xmlns="http://www.w3.org/2000/svg"
   xmlns:svg="http://www.w3.org/2000/svg">
  <defs
     id="defs2">
    <inkscape:path-effect
       effect="fill_between_many"
       method="originald"
       linkedpaths="#SVGRepo_iconCarrier,0,1|"
       id="path-effect4" />
  </defs>
  <sodipodi:namedview
     id="namedview2"
     pagecolor="#ffffff"
     bordercolor="#111111"
     borderopacity="1"
     inkscape:showpageshadow="0"
     inkscape:pageopacity="0"
     inkscape:pagecheckerboard="1"
     inkscape:deskcolor="#d1d1d1"
     inkscape:zoom="1.46625"
     inkscape:cx="210.74169"
     inkscape:cy="554.81671"
     inkscape:window-width="2560"
     inkscape:window-height="1369"
     inkscape:window-x="2552"
     inkscape:window-y="-8"
     inkscape:window-maximized="1"
     inkscape:current-layer="svg2" />
  <g
     id="SVGRepo_bgCarrier"
     stroke-width="0" />
  <g
     id="SVGRepo_tracerCarrier"
     stroke-linecap="round"
     stroke-linejoin="round" />
  <path
     inkscape:original-d="M 0,0"
     inkscape:path-effect="#path-effect4"
     d="M 0,0"
     id="path5" />
  <g
     id="SVGRepo_iconCarrier"
     style="stroke:#000000;stroke-opacity:1;stroke-width:3;stroke-dasharray:none;paint-order:stroke fill markers;stroke-linecap:square;stroke-linejoin:bevel">
    <path
       fill-rule="evenodd"
       clip-rule="evenodd"
       d="M3 14a1 1 0 0 1 1-1h12a3 3 0 0 0 3-3V6a1 1 0 1 1 2 0v4a5 5 0 0 1-5 5H4a1 1 0 0 1-1-1z"
       fill="#ffffff"
       id="path9"
       style="stroke:#000000;stroke-opacity:1;stroke-width:3;stroke-dasharray:none;paint-order:stroke fill markers;stroke-linecap:square;stroke-linejoin:bevel" />
    <path
       fill-rule="evenodd"
       clip-rule="evenodd"
       d="M3.293 14.707a1 1 0 0 1 0-1.414l4-4a1 1 0 0 1 1.414 1.414L5.414 14l3.293 3.293a1 1 0 1 1-1.414 1.414l-4-4z"
       fill="#ffffff"
       id="path8"
       style="stroke:#000000;stroke-opacity:1;stroke-width:3;stroke-dasharray:none;paint-order:stroke fill markers;stroke-linecap:square;stroke-linejoin:bevel" />
  </g>
  <path
     style="fill:#ffffff;stroke:none;stroke-width:0.03px;stroke-linecap:butt;stroke-linejoin:miter;stroke-opacity:1;fill-opacity:1"
     d="M 7.1976597,14.999344 H 5.6857896 L 5.2843122,13.899803 6.1867323,12.997382 h 1.5715494 z"
     id="path10" />
  <path
     style="fill:none;stroke:none;stroke-width:0.03px;stroke-linecap:butt;stroke-linejoin:miter;stroke-opacity:1"
     d="m 6.9191574,14.955941 -0.2314824,0.05425 -0.054254,0.08319 0.050637,0.18808 z"
     id="path11" />
  <path
     style="fill:#ffffff;fill-opacity:1;stroke:none;stroke-width:0.99999;stroke-linecap:square;stroke-linejoin:bevel;stroke-dasharray:none;stroke-opacity:1;paint-order:stroke markers fill"
     id="path12"
     d="m 6.8304357,14.765024 c -0.1624674,0.01457 -0.3021357,0.133937 -0.4207413,0.243561 -0.021994,0.02033 -0.037118,0.03391 -0.058435,0.05551 -0.010237,0.01038 -0.020055,0.02116 -0.030083,0.03173 -0.038719,0.043 -0.074868,0.08937 -0.1002075,0.141699 -0.00341,0.007 -0.00628,0.01433 -0.00942,0.0215 -0.011111,0.02704 -0.021283,0.05439 -0.03224,0.08149 -0.00725,0.01648 -0.0069,0.03392 -0.00401,0.0513 0.00314,0.01453 0.00516,0.02943 0.011322,0.04309 0.00324,0.0072 0.00713,0.01403 0.010577,0.02111 0.011099,0.02125 0.01954,0.04394 0.033005,0.06392 0.00405,0.006 0.00859,0.01166 0.012878,0.01749 0.0048,0.0067 0.00951,0.01346 0.014389,0.02011 0.016441,0.0224 0.016064,0.01992 0.030253,0.04313 0.00528,0.0086 0.015224,0.02753 0.020966,0.03653 0.0031,0.0048 0.00664,0.0094 0.00997,0.01409 0.1125357,0.14019 0.1566633,-0.02662 0.4178154,-0.180738 8.19e-4,-4.83e-4 -0.00545,-0.03542 -0.00563,-0.03644 -0.0029,-0.0079 -0.00542,-0.01604 -0.00871,-0.02383 -0.03231,-0.07665 0.00459,0.01924 -0.030034,-0.06799 -0.010436,-0.02629 -0.020649,-0.05486 -0.028349,-0.0821 -0.00374,-0.01324 -0.00659,-0.02671 -0.00989,-0.04007 -0.00751,-0.03513 -0.01332,-0.07068 -0.015264,-0.106593 -0.00161,-0.02973 -4.11e-4,-0.05939 0.00139,-0.08906 0.00288,-0.03463 0.0037,-0.06956 0.010626,-0.103735 0.00356,-0.01755 0.00558,-0.02192 0.011112,-0.0381 0.00913,-0.01806 0.00301,-0.0079 0.014109,-0.02285 0.00227,-0.0031 0.0041,-0.0065 0.00668,-0.0093 0.00657,-0.0071 0.015884,-0.01159 0.024312,-0.01597 0.1407915,-0.05831 0.2685939,-0.135335 -0.348963,0.204013 -0.00237,0.0013 -0.00189,-0.0051 -0.00318,-0.0075 -0.00251,-0.0046 -0.00547,-0.0089 -0.00821,-0.01338 -0.00164,-0.0019 -0.00266,-0.0047 -0.00492,-0.0058 -0.00359,-0.0018 -0.0065,0.0051 -0.00871,0.0084 -0.011405,0.01745 -0.0033,0.0048 -0.014807,0.02681 -0.00323,0.0062 -0.00671,0.01219 -0.010071,0.01829 -0.022623,0.04664 -0.047644,0.09201 -0.071739,0.137892 -0.00166,0.0028 -0.016357,0.02804 -0.020349,0.03147 -0.00293,0.0025 -0.014235,0.0059 -0.0109,0.0039 0.125415,-0.07331 0.2481945,-0.151523 0.3773016,-0.218118 0.0062,-0.0032 0.00698,0.0121 0.010887,0.01788 5.04e-4,7.47e-4 0.00148,10e-4 0.00223,0.0015 0.008,-0.03334 0.028259,-0.06268 0.050212,-0.08848 0.00753,-0.0088 0.015894,-0.01694 0.023841,-0.02541 0.0091,-0.0079 0.017829,-0.01623 0.027288,-0.02368 0.00986,-0.0078 0.019985,-0.01524 0.030598,-0.02194 0.011141,-0.007 0.045913,-0.02586 0.034556,-0.01918 -0.097578,0.05738 -0.1963131,0.112796 -0.2932302,0.171281 -0.013158,0.0079 0.027657,-0.01343 0.041763,-0.01953 0.01385,-0.006 0.028047,-0.01114 0.04207,-0.01671 0.038249,-0.01399 0.07765,-0.02465 0.1177587,-0.03173 0.011107,-0.002 0.022323,-0.0032 0.033485,-0.0048 0,0 0.3169851,-0.238351 0.3169851,-0.238351 v 0 c -0.055976,0.01029 -0.1122552,0.01987 -0.166215,0.03861 -0.013855,0.0048 -0.071129,0.02408 -0.084463,0.03141 -0.1247028,0.06856 -0.2481117,0.139451 -0.3714027,0.210514 -0.035717,0.02059 -0.066769,0.04834 -0.094881,0.0782 -0.00813,0.0097 -0.016525,0.01909 -0.024388,0.02896 -0.012403,0.01557 -0.03223,0.04293 -0.043134,0.05972 -0.012529,0.01929 -0.020362,0.03056 -0.026557,0.05171 -0.00178,0.0061 -0.00228,0.01245 -0.00342,0.01868 8.55e-4,0.0064 2.1e-4,0.01311 0.00256,0.01907 0.066027,0.167286 0.3432312,-0.158632 0.3995835,-0.192011 0.00235,-0.0014 -0.00157,-0.0054 -0.00129,-0.0081 5.1e-4,-0.005 0.00795,-0.02442 0.009,-0.02732 0.020411,-0.04651 0.043349,-0.09222 0.072948,-0.133642 0.0088,-0.01285 0.018154,-0.02531 0.026692,-0.03833 0.00925,-0.0141 0.019864,-0.03103 0.017806,-0.0489 -7.26e-4,-0.0063 -0.00364,-0.01214 -0.00546,-0.01821 -0.00449,-0.0068 -0.00805,-0.01441 -0.013468,-0.02055 -0.00304,-0.0034 -0.00739,-0.0099 -0.011445,-0.0077 -0.1296204,0.06939 -0.2554476,0.145642 -0.3829584,0.218834 -0.00199,0.0011 -0.00379,0.0026 -0.0055,0.0041 -0.00344,0.0031 -0.00888,0.0096 -0.011773,0.01286 -0.014476,0.02107 -0.021968,0.04374 -0.023308,0.06938 -6.42e-4,0.0471 -0.00327,0.09411 -0.004,0.141194 0.00125,0.02311 0.00155,0.03512 0.00429,0.05837 0.00555,0.04716 0.016897,0.09331 0.031945,0.138307 0.00843,0.02545 0.018574,0.05505 0.025701,0.08084 0.010222,0.03699 0.019418,0.07562 0.013235,0.114254 -0.00112,0.007 -0.00438,0.01343 -0.00658,0.02014 -0.00276,0.0032 -0.00435,0.008 -0.00829,0.0095 -0.00351,0.0013 -0.01416,-6.96e-4 -0.010904,-0.0025 0.1253346,-0.07011 0.2521944,-0.137498 0.3796176,-0.203736 0.00256,-0.0013 -8.31e-4,0.0063 -0.00316,0.008 -0.00464,0.0034 -0.015657,-0.0037 -0.018164,-0.0049 -0.00387,-0.0026 -0.00797,-0.005 -0.011613,-0.0079 -0.029495,-0.0238 -0.049245,-0.05743 -0.064437,-0.09155 -0.00461,-0.01336 -0.00731,-0.02175 -0.012386,-0.03459 -0.00652,-0.01649 -0.015029,-0.03217 -0.020039,-0.04924 -0.00547,-0.01685 -0.012013,-0.03416 -0.010239,-0.05214 0.00248,-0.01284 0.00599,-0.02533 0.00916,-0.038 0.00557,-0.02398 0.011362,-0.04797 0.01862,-0.07149 0.0052,-0.01371 0.00827,-0.02281 0.014981,-0.03612 0.018616,-0.0369 0.04367,-0.07015 0.071921,-0.100187 0.0098,-0.0097 0.019237,-0.01972 0.029405,-0.029 0.021841,-0.01993 0.046295,-0.03933 0.070862,-0.05578 0.012101,-0.0081 0.049962,-0.02995 0.037296,-0.02276 -0.345537,0.196111 -0.3879711,0.322438 -0.3430986,0.192462 z" />
  <path
     style="fill:#ffffff;fill-opacity:1;stroke:none;stroke-width:0.99999;stroke-linecap:square;stroke-linejoin:bevel;stroke-dasharray:none;stroke-opacity:1;paint-order:stroke markers fill"
     id="path13"
     d="m 7.0456623,14.74542 c -0.00353,0.0025 -0.00693,0.0052 -0.010598,0.0075 -0.00845,0.0053 -0.017143,0.01015 -0.025755,0.01516 -0.1259871,0.07326 -0.2524461,0.14571 -0.3780423,0.219636 -0.00864,0.0051 -0.016423,0.01151 -0.024574,0.01735 -0.033278,0.02384 -0.022752,0.01613 -0.05539,0.04242 -0.083752,0.06963 0.026842,-0.02285 -0.052647,0.04529 -0.00893,0.0077 -0.03611,0.02941 -0.045745,0.03742 -0.033596,0.02794 -0.00548,0.0057 -0.037451,0.03049 -0.0051,0.0041 -0.010196,0.0082 -0.015294,0.01224 0,0 0.3939834,-0.159788 0.3939834,-0.159788 v 0 c 0.00347,-0.0033 0.00695,-0.0066 0.010422,-0.0099 0.015779,-0.01497 0.031946,-0.02947 0.047951,-0.04419 0.022042,-0.02028 0.043873,-0.04083 0.06806,-0.05861 0.027297,-0.01949 0.031475,-0.02316 0.06027,-0.04089 0.010297,-0.0063 0.041753,-0.02442 0.031289,-0.01836 -0.1096065,0.06347 -0.2191437,0.12706 -0.3287154,0.190591 0.012463,-0.0066 0.00677,-0.0052 0.016363,-0.0065 z" />
  <path
     style="fill:#ffffff;fill-opacity:1;stroke:none;stroke-width:0.99999;stroke-linecap:square;stroke-linejoin:bevel;stroke-dasharray:none;stroke-opacity:1;paint-order:stroke markers fill"
     id="path14"
     d="m 6.5026017,15.000394 c 0.00457,0.01881 0.00209,0.03829 -2.4e-4,0.05721 0,0 0.3794049,-0.186577 0.3794049,-0.186577 v 0 c 0.00362,-0.02224 0.00838,-0.04443 0.018196,-0.06489 z" />
  <path
     style="fill:#ffffff;fill-opacity:1;stroke:none;stroke-width:0.99999;stroke-linecap:square;stroke-linejoin:bevel;stroke-dasharray:none;stroke-opacity:1;paint-order:stroke markers fill"
     id="path15"
     d="m 6.462495,15.022637 c 0.00962,0.02596 0.021764,0.05086 0.032376,0.07642 0.00515,0.0124 0.013027,0.03361 0.017874,0.04648 0.00889,0.02425 0.00457,0.01268 0.01294,0.03474 0,0 0.3699759,-0.212815 0.3699759,-0.212815 v 0 c -0.013227,-0.01675 -0.00656,-0.0077 -0.019804,-0.02716 -0.00765,-0.01365 -0.014978,-0.0253 -0.019969,-0.04034 -0.0084,-0.02531 -0.0093,-0.05198 -9.03e-4,-0.07731 z" />
  <path
     style="fill:#ffffff;fill-opacity:1;stroke:none;stroke-width:0.99999;stroke-linecap:square;stroke-linejoin:bevel;stroke-dasharray:none;stroke-opacity:1;paint-order:stroke markers fill"
     id="path16"
     d="m 6.3414948,15.145706 c 0.039226,0.01202 0.071815,0.03832 0.098277,0.06903 0.00546,0.0063 0.010358,0.01315 0.015538,0.01973 0.01255,0.01624 0.025,0.03254 0.037039,0.04916 0,0 0.3617973,-0.219046 0.3617973,-0.219046 v 0 c -0.015925,-0.01443 -0.030856,-0.02979 -0.046798,-0.04421 -0.036314,-0.0332 -0.070458,-0.06501 -0.091227,-0.110695 z" />
  <path
     style="fill:#ffffff;fill-opacity:1;stroke:none;stroke-width:0.99999;stroke-linecap:square;stroke-linejoin:bevel;stroke-dasharray:none;stroke-opacity:1;paint-order:stroke markers fill"
     id="path17"
     d="m 6.3753396,15.232902 c 0.032761,0.03981 0.06476,0.08023 0.096943,0.1205 0.00786,0.01128 0.015719,0.02255 0.023579,0.03383 0,0 0.3367044,-0.197503 0.3367044,-0.197503 v 0 c -0.00731,-0.01126 -0.014623,-0.02252 -0.021935,-0.03377 -0.014281,-0.02876 -0.019384,-0.03703 -0.03027,-0.06612 -0.00569,-0.01521 -0.015159,-0.04131 -0.013426,-0.05845 2.4e-4,-0.0023 0.00164,-0.0042 0.00246,-0.0064 z" />
  <path
     style="fill:#ffffff;fill-opacity:1;stroke:none;stroke-width:0.99999;stroke-linecap:square;stroke-linejoin:bevel;stroke-dasharray:none;stroke-opacity:1;paint-order:stroke markers fill"
     id="path18"
     d="m 6.6051321,15.051086 c 0.01901,0.01798 0.036443,0.03755 0.050369,0.05978 0.012259,0.01957 0.017047,0.03081 0.027336,0.05182 0.0037,0.0096 0.00741,0.01925 0.011111,0.02888 0,0 0.3530349,-0.197151 0.3530349,-0.197151 v 0 c -0.00402,-0.0097 -0.00804,-0.01935 -0.012062,-0.02903 -0.011337,-0.0321 -0.0098,-0.02844 -0.021646,-0.05932 -0.00655,-0.01706 -0.017948,-0.04144 -0.018738,-0.06018 -1.2e-4,-0.0027 0.00111,-0.0053 0.00166,-0.008 z" />
  <path
     style="fill:#ffffff;fill-opacity:1;stroke:none;stroke-width:0.99999;stroke-linecap:square;stroke-linejoin:bevel;stroke-dasharray:none;stroke-opacity:1;paint-order:stroke markers fill"
     id="path19"
     d="m 6.8433156,15.284745 c -5.88e-4,-0.02238 -3.78e-4,-0.04573 0.00483,-0.06763 0.00712,-0.02993 0.019971,-0.05978 0.036093,-0.08587 0.00997,-0.01613 0.022236,-0.03072 0.033354,-0.04607 0.03792,-0.0392 0.044578,-0.04954 0.089411,-0.08176 0.016991,-0.01221 0.071081,-0.04417 0.052971,-0.03369 -0.082567,0.0478 -0.1661358,0.09405 -0.2463777,0.14565 -0.020636,0.01327 0.044343,-0.02108 0.067065,-0.03033 0.020657,-0.0084 0.041981,-0.01509 0.062971,-0.02264 0.078364,-0.0249 0.1591602,-0.04211 0.240897,-0.05094 0.00667,-3e-4 0.01333,-8.73e-4 0.020005,-8.82e-4 0.0575,-9e-5 -0.1133631,0.0316 -0.019299,-0.04 0.1862853,-0.141792 0.5068866,-0.268783 0.3415983,-0.202633 -0.010548,0.0031 -0.021071,0.0062 -0.031643,0.0092 -0.017166,0.0048 -0.034256,0.0099 -0.05157,0.01419 -0.017981,0.0044 -0.09741,0.02094 -0.1151892,0.02488 -0.056481,0.0125 -0.050366,0.01145 -0.1047903,0.0258 -0.051716,0.01401 -0.1015017,0.03335 -0.150807,0.0541 -0.019274,0.0081 -0.03859,0.01615 -0.057603,0.02486 -0.018362,0.0084 -0.036953,0.01647 -0.054496,0.02648 -0.1208016,0.0689 -0.2402718,0.140117 -0.3604077,0.210175 -0.056633,0.04483 -0.1016382,0.101335 -0.1303482,0.167749 -0.013478,0.03118 -0.017267,0.04935 -0.026051,0.08156 -0.00778,0.03367 -0.01245,0.06811 -0.013152,0.102686 -5.37e-4,0.02643 0.00154,0.05295 0.00393,0.07925 0.00301,0.01616 0.00343,0.02078 0.0078,0.03593 0.00128,0.0044 0.00202,0.0092 0.00436,0.01319 0.00305,0.0052 0.00687,0.01016 0.011524,0.01402 0.01351,0.01119 0.024325,0.01245 0.040818,0.01734 0.017226,0.0043 0.033829,0.01065 0.050885,0.01553 0.00431,0.0012 0.00907,0.0055 0.013022,0.0034 0.3885981,-0.208204 0.3763179,-0.06983 0.384558,-0.23492 -0.00144,-0.007 -0.00259,-0.01415 -0.00432,-0.02113 -0.00366,-0.01481 -0.00888,-0.02919 -0.012663,-0.04397 -0.00645,-0.02517 -0.010535,-0.05077 -0.014574,-0.0764 -0.00249,-0.02673 -0.00332,-0.03193 -0.00443,-0.05912 -4.23e-4,-0.01044 -1.5e-4,-0.02091 -7.65e-4,-0.03134 -6.96e-4,-0.01189 -0.00243,-0.0237 -0.00315,-0.03559 -0.00189,-0.03118 -0.00136,-0.04711 -0.00129,-0.07834 3.66e-4,-0.04377 0.00357,-0.08745 0.00384,-0.131217 2.76e-5,-0.0045 -3.48e-4,-0.05185 -3.81e-4,-0.05645 -0.00104,-0.03631 -1.8e-4,-0.07268 0.00776,-0.10827 0.00194,-0.0087 0.00388,-0.01742 0.0068,-0.02583 0.00293,-0.0084 0.00714,-0.01636 0.010709,-0.02454 0.00447,-0.0081 0.00825,-0.01658 0.013422,-0.02422 0.010086,-0.0149 0.024007,-0.02986 0.039226,-0.03969 0.0079,-0.0051 0.033426,-0.01719 0.025361,-0.01236 -0.3199467,0.191779 -0.4351383,0.217903 -0.2722503,0.174982 0.019476,-0.0015 0.0389,-0.0041 0.058429,-0.0044 0.093048,-10e-4 0.1866438,0.01725 0.2749065,0.0458 0.016924,0.0055 0.033402,0.01224 0.050102,0.01836 0.032494,0.01346 0.064725,0.02763 0.096346,0.04305 0.014354,0.007 0.028282,0.01477 0.04248,0.02207 0.00743,0.0035 0.01518,0.0071 0.020798,0.01335 2.7e-4,3.03e-4 0.00461,0.0055 0.00295,0.0071 -0.00112,0.0011 -0.00305,3.36e-4 -0.00457,5.04e-4 -0.00244,3.15e-4 -0.00493,3.72e-4 -0.00732,9.48e-4 -0.013443,0.0032 -0.028296,0.0112 -0.027148,0.01052 0.1088922,-0.06405 0.2189487,-0.126116 0.3277179,-0.190378 0.010946,-0.0065 -0.022546,0.01179 -0.034168,0.01695 -0.01349,0.006 -0.027404,0.01096 -0.041106,0.01643 -0.016527,0.0056 -0.033008,0.01129 -0.049582,0.01673 -0.025018,0.0082 -0.049932,0.01676 -0.07519,0.02418 -0.077829,0.02289 -0.076758,0.01916 -0.1535205,0.03964 -0.058369,0.01557 -0.081688,0.02363 -0.1380633,0.04149 -0.019315,0.0074 -0.038973,0.01396 -0.057944,0.0222 -0.017514,0.0076 -0.034927,0.01563 -0.051397,0.02529 -0.1197894,0.07026 -0.2407134,0.13883 -0.3572325,0.214393 -0.021865,0.01418 -0.058045,0.06721 -0.067642,0.09086 -0.00764,0.01883 -0.00989,0.03942 -0.014836,0.05913 -0.00311,0.02154 -0.00703,0.04297 -0.00933,0.06461 -0.0023,0.02162 -0.00334,0.04336 -0.00446,0.06508 -0.00345,0.06666 -0.00303,0.13315 5.52e-4,0.199767 0.002,0.02507 0.00509,0.05003 0.00699,0.0751 3.48e-4,0.0046 -0.00104,0.0096 8.79e-4,0.01375 0.07531,0.164142 0.3663528,-0.194279 0.3941103,-0.211741 -3.54e-4,-0.006 -0.00109,-0.01207 -0.00106,-0.01812 9e-5,-0.01882 0.00271,-0.04178 0.00468,-0.06009 0.00143,-0.01331 0.00266,-0.02666 0.00456,-0.03991 0.00524,-0.03648 0.00952,-0.05325 0.017333,-0.08971 0.021008,-0.07399 0.03685,-0.149389 0.059034,-0.223055 0.016214,-0.05384 0.01921,-0.05861 0.03907,-0.109301 0.017295,-0.03315 0.021735,-0.04747 0.046667,-0.07446 0.016881,-0.01828 0.038163,-0.0324 0.058987,-0.04557 0.011052,-0.007 0.045037,-0.02661 0.033719,-0.02006 -0.097414,0.05641 -0.1946733,0.113083 -0.2920101,0.169624 0.094542,-0.05317 0.1934457,-0.09792 0.2910192,-0.145118 0.056241,-0.02804 0.1116891,-0.05768 0.1697154,-0.08193 0.014376,-0.0056 0.00466,1.8e-4 -0.013165,-0.01833 -0.00623,-0.0065 -0.00824,-0.01815 -0.016713,-0.02115 -0.00541,-0.0019 -0.00913,0.007 -0.013745,0.01037 -0.030436,0.02248 -0.023737,0.01737 -0.059037,0.04137 -0.063294,0.04203 -0.1278525,0.08214 -0.1893348,0.126835 -0.019108,0.01389 -0.038337,0.02765 -0.056801,0.04238 -0.018858,0.01505 -0.036737,0.03129 -0.055105,0.04694 -0.034627,0.03428 -0.066746,0.06297 -0.095013,0.103007 -0.013375,0.01894 -0.023775,0.03983 -0.035325,0.05993 -0.027634,0.04811 -0.041687,0.0736 -0.065733,0.123151 -0.00903,0.0186 -0.017345,0.03754 -0.026018,0.05631 -0.020757,0.0448 -0.0368,0.09156 -0.056126,0.136946 -0.00493,0.01157 -0.017969,0.04451 -0.030215,0.05446 -0.00411,0.0033 -0.010328,0.0023 -0.015492,0.0035 0.1329165,-0.06494 0.2685111,-0.12466 0.3987498,-0.194815 0.00574,-0.0031 -0.00166,-0.01306 -8.4e-4,-0.01953 0.00139,-0.01105 0.004,-0.02197 0.00742,-0.03257 0.0099,-0.03065 0.025041,-0.06059 0.041986,-0.08781 0.01096,-0.0176 0.023585,-0.03412 0.035377,-0.05117 0.014927,-0.01756 0.029078,-0.0358 0.04478,-0.05267 0.038703,-0.04158 0.06545,-0.06533 0.1126446,-0.0976 0.022637,-0.01548 0.093788,-0.05688 0.070085,-0.04308 -0.2545449,0.14812 -0.2895861,0.162158 -0.1659672,0.105097 0.017331,-0.0161 0.043111,-0.01245 0.062569,-0.02324 0.1237218,-0.06859 0.2490795,-0.1346 0.3689013,-0.209793 0.00708,-0.0044 0.00836,-0.01713 0.00469,-0.02465 -0.00659,-0.01348 -0.018629,-0.02499 -0.032138,-0.03152 -0.01013,-0.0049 -0.022501,-2.1e-4 -0.033752,-3.33e-4 -0.014485,0.0028 -0.029102,0.005 -0.043454,0.0084 -0.056093,0.01331 -0.1110621,0.03289 -0.1633494,0.05711 -0.018064,0.0084 -0.036032,0.01705 -0.053255,0.02703 -0.1205655,0.06988 -0.2400135,0.141673 -0.3600201,0.212509 -0.030892,0.02729 -0.054295,0.04495 -0.078869,0.07835 -0.010854,0.01475 -0.019312,0.03113 -0.028337,0.04706 -0.016643,0.02938 -0.03611,0.06736 -0.049055,0.09869 -0.00651,0.01577 -0.011664,0.03207 -0.017496,0.0481 -0.00339,0.01617 -0.00778,0.03217 -0.010163,0.04852 -0.009,0.06188 -0.00354,0.130378 0.00925,0.191398 0.00315,0.015 0.00757,0.02971 0.011357,0.04457 0.00453,0.01409 0.00863,0.02833 0.013581,0.04227 0.012182,0.03108 0.017368,0.04349 0.02822,0.07419 0.00879,0.02487 0.016476,0.0501 0.025007,0.07506 0.00239,0.006 0.00477,0.01205 0.00718,0.01806 0.00595,0.01486 0.01168,0.02974 0.016401,0.04505 0.00295,0.0095 0.0055,0.01921 0.00842,0.02877 0.01181,0.03811 0.018256,0.07746 0.025918,0.11652 0.00375,0.02455 0.00221,0.01249 0.00469,0.03616 0,0 0.3754086,-0.201068 0.3754086,-0.201068 v 0 c -0.00689,-0.02103 -0.00372,-0.0098 -0.00919,-0.03371 -0.00868,-0.03979 -0.017089,-0.07967 -0.023093,-0.119972 -0.00296,-0.01473 -0.00357,-0.02065 -0.00868,-0.03471 -0.00807,-0.02221 -0.022357,-0.0414 -0.033247,-0.0622 -0.0145,-0.02117 -0.029452,-0.04216 -0.043127,-0.06388 -0.00623,-0.0099 -0.012633,-0.01971 -0.018075,-0.03006 -0.014486,-0.02755 -0.019867,-0.04464 -0.030861,-0.07383 -0.00887,-0.03432 -0.013685,-0.0488 -0.01846,-0.08411 -0.00807,-0.0597 -0.00435,-0.119708 0.012887,-0.17755 0.012595,-0.0368 0.016575,-0.05269 0.034738,-0.08784 0.0081,-0.01569 0.016747,-0.03116 0.026732,-0.04573 0.029862,-0.04354 0.067634,-0.08058 0.1101516,-0.111608 -0.088331,0.04976 -0.1766238,0.09959 -0.2649915,0.149288 -0.016731,0.0094 0.032961,-0.01975 0.050081,-0.02843 0.041073,-0.02083 0.085726,-0.03795 0.1314198,-0.04517 0.0087,-0.0014 0.017563,-0.0013 0.026345,-0.0019 0.00425,-4.77e-4 0.012095,0.0028 0.012752,-0.0014 0.00133,-0.0085 -0.0068,-0.01597 -0.00874,-0.02438 -8.52e-4,-0.0037 -0.00275,-0.0094 5.13e-4,-0.0114 0.6104343,-0.36523 0.3795489,-0.203611 0.238323,-0.139656 -0.1756818,0.08794 -0.1054812,0.05123 -0.4176843,0.235239 -0.040903,0.02411 -0.1041099,0.06958 -0.1391577,0.10071 -0.034068,0.03026 -0.073841,0.0783 -0.1035465,0.112497 -0.039136,0.05104 -0.048776,0.06083 -0.08176,0.114145 -0.01849,0.02989 -0.034659,0.06156 -0.050715,0.09281 -0.083823,0.163106 -0.012802,0.03262 0.3770799,-0.135391 -0.00297,-0.0018 -0.00747,-0.0023 -0.00892,-0.0055 -0.00405,-0.0089 0.00234,-0.03957 0.00321,-0.04394 0.00831,-0.04168 0.021227,-0.08236 0.033452,-0.122996 0.014704,-0.04041 0.023127,-0.06712 0.042947,-0.106073 0.010288,-0.02022 0.021293,-0.04014 0.033735,-0.05911 0.037317,-0.05689 0.083253,-0.107888 0.1336344,-0.153377 0.018535,-0.01491 0.036594,-0.03044 0.055603,-0.04474 0.045387,-0.03415 0.076006,-0.05261 0.1241223,-0.08315 0.051736,-0.03284 0.1038249,-0.06511 0.1558677,-0.09746 0.021704,-0.01371 0.063578,-0.03964 0.085267,-0.05519 0.010292,-0.0074 0.024186,-0.01215 0.029886,-0.02345 0.012279,-0.02436 0.0062,-0.05282 -0.020391,-0.06266 -0.00603,-0.0022 -0.012221,0.004 -0.018332,0.006 -0.090702,0.04639 0.056866,-0.02927 -0.051278,0.02689 -0.050949,0.02645 -0.1022217,0.05231 -0.1521603,0.08068 -0.049225,0.02589 -0.098593,0.05134 -0.1489014,0.07508 -0.064103,0.03025 -0.03415,0.015 -0.095695,0.04393 -0.013907,0.0065 -0.027674,0.01337 -0.041512,0.02006 -0.1233657,0.07114 -0.2472945,0.141321 -0.3700971,0.213433 -0.034015,0.01997 -0.068318,0.04866 -0.08833,0.08318 -0.015831,0.02731 -0.018363,0.04504 -0.026554,0.07544 -0.011825,0.05503 -0.023648,0.109721 -0.040669,0.163464 -0.022624,0.07143 -0.018792,0.05064 -0.042934,0.119993 -0.00601,0.01728 -0.011204,0.03484 -0.016805,0.05225 -0.0046,0.01643 -0.00921,0.03287 -0.013811,0.0493 -0.00406,0.01542 -0.00792,0.03089 -0.012195,0.04625 -0.010425,0.03749 -0.021465,0.07564 -0.039529,0.11033 -0.0038,0.0073 -0.00868,0.01398 -0.013018,0.02097 0.1230009,-0.0723 0.2413626,-0.153146 0.3690024,-0.216899 0.00874,-0.0044 0.00916,0.01776 0.010258,0.02747 2.7e-4,0.0024 -0.00533,0.0011 -0.0072,-4.32e-4 -0.00395,-0.0032 -0.00616,-0.0081 -0.00876,-0.01252 -0.00944,-0.01585 -0.013052,-0.02626 -0.02048,-0.04375 -0.00889,-0.02723 -0.014559,-0.04228 -0.020493,-0.07116 -0.010941,-0.05326 -0.015081,-0.108601 -0.00605,-0.162547 0.00347,-0.02072 0.010302,-0.04074 0.015453,-0.06111 0.022635,-0.04522 0.026406,-0.06089 0.059011,-0.09755 0.011392,-0.01281 0.052796,-0.04284 0.037418,-0.03527 -0.090569,0.04457 -0.1760964,0.09874 -0.2646879,0.147126 -0.018715,0.01022 0.036139,-0.02273 0.055031,-0.03262 0.020469,-0.01071 0.041934,-0.01941 0.062901,-0.02912 0.023188,-0.0087 0.046135,-0.01801 0.069564,-0.026 0.047831,-0.01631 0.096618,-0.02991 0.1459728,-0.04077 0.098823,-0.02174 0.035525,-0.0059 0.1225857,-0.01939 0.014274,-0.0022 0.028324,-0.0057 0.042486,-0.0085 0.00167,-4.35e-4 0.061185,-0.01558 0.065622,-0.01802 0.1274247,-0.07027 0.253395,-0.143163 0.3789336,-0.216746 0.013574,-0.008 0.02763,-0.02216 0.033417,-0.0373 0.00234,-0.0061 0.00186,-0.01298 0.00279,-0.01946 -0.0034,-0.01431 -0.00282,-0.01747 -0.010217,-0.02945 -0.010004,-0.01622 -0.026396,-0.02606 -0.043331,-0.03371 -0.00543,-0.0015 -0.010773,-0.0034 -0.016287,-0.0046 -0.017245,-0.0038 -0.030176,-0.0042 -0.048022,-0.0067 -0.04322,-0.0059 -0.086017,-0.01438 -0.129045,-0.02143 -0.020429,-0.0038 -0.040913,-0.0073 -0.061287,-0.0114 -0.038275,-0.0077 -0.100101,-0.02149 -0.1377873,-0.03049 -0.022326,-0.0053 -0.044548,-0.01109 -0.066822,-0.01663 -0.019459,-0.0051 -0.038812,-0.01068 -0.058376,-0.0154 -0.015974,-0.0039 -0.032137,-0.0069 -0.048205,-0.01031 -0.182412,-0.0154 -0.040027,-0.01077 -0.4189938,0.205361 -0.00895,0.0051 -0.015986,0.01312 -0.022978,0.02069 -0.020895,0.02263 -0.034163,0.05103 -0.045892,0.07909 -0.00822,0.02648 -0.010734,0.0313 -0.015214,0.05855 -0.00619,0.03764 -0.00431,0.07578 -0.00419,0.113736 1.8e-4,0.01366 5.01e-4,0.04283 0.00104,0.05649 0.00165,0.04155 0.00723,0.08281 0.00911,0.12435 3.75e-4,0.01266 0.00117,0.02532 0.00112,0.03799 -2.4e-4,0.06329 -0.00183,0.01736 -0.00496,0.08004 -0.00161,0.03216 0.00124,0.06446 0.00242,0.09658 0.00266,0.0363 0.00136,0.02227 0.00494,0.05713 0.00175,0.01708 0.00714,0.04729 9e-5,0.06387 -0.00151,0.0036 -0.00516,0.0058 -0.00774,0.0086 -0.1490334,0.0097 -0.016882,0.0025 0.3566094,-0.20328 0.00369,-0.002 -0.00616,0.006 -0.010048,0.0076 -0.015902,0.0066 -0.034373,2.4e-4 -0.050012,-0.0031 -0.00448,-0.0017 -0.00891,-0.0035 -0.013429,-0.0051 -0.00242,-8.58e-4 -0.00491,-0.0015 -0.00736,-0.0023 -0.00151,-4.68e-4 -0.00329,-4.38e-4 -0.00452,-0.0014 -0.0095,-0.0077 -0.013286,-0.02131 -0.018245,-0.03177 -0.00184,-0.0059 -0.00409,-0.01167 -0.00551,-0.01767 -0.010615,-0.04489 -0.00662,-0.09215 2.7e-4,-0.137189 0.00703,-0.03022 0.00806,-0.04056 0.02069,-0.06976 0.026047,-0.06023 0.066652,-0.103991 0.1200906,-0.141401 -0.087388,0.04938 -0.1747761,0.09877 -0.2621643,0.148153 0.017644,-0.0094 0.034923,-0.01951 0.052932,-0.02818 0.041781,-0.02012 0.059042,-0.02469 0.101448,-0.04053 0.1113279,-0.04159 -0.018415,0.0058 0.096432,-0.03587 0.017414,-0.0056 0.03468,-0.0117 0.052243,-0.01682 0.034376,-0.01002 0.07129,-0.01904 0.1067928,-0.02423 0.046236,-0.0068 0.039462,-0.0036 0.080697,-0.0044 0.00787,-1.5e-4 0.015718,-8.07e-4 0.023578,-0.0012 0.1619505,0.0044 0.098976,0.0055 0.4052472,-0.219013 0.01436,-0.01053 -0.01376,-0.03356 -0.025523,-0.04693 -0.00326,-0.0037 -0.00987,4.23e-4 -0.014743,0.0012 -0.012808,0.002 -0.039052,0.0085 -0.050324,0.0112 -0.039317,0.0085 -0.079058,0.01588 -0.1180686,0.02568 -0.040619,0.0102 -0.065879,0.0186 -0.10638,0.03183 -0.021129,0.0069 -0.042181,0.01404 -0.063271,0.02106 -0.0052,0.0018 -0.123075,0.04251 -0.1294149,0.04594 -0.1221537,0.06595 -0.2420919,0.135964 -0.361662,0.206489 -0.018789,0.01108 -0.036187,0.02446 -0.053153,0.03818 -0.044153,0.03569 -0.052427,0.0488 -0.089606,0.09124 -0.031617,0.04484 -0.042652,0.05776 -0.068957,0.105923 -0.00848,0.01552 -0.015187,0.03194 -0.023201,0.0477 -0.014974,0.02946 -0.030388,0.05929 -0.050257,0.08583 z" />
  <path
     style="fill:#ffffff;fill-opacity:1;stroke:none;stroke-width:2.7;stroke-linecap:square;stroke-linejoin:bevel;stroke-dasharray:none;stroke-opacity:1;paint-order:stroke markers fill"
     id="path20"
     d="m 7.3898118,13.282564 c -0.1021752,-0.02017 -0.2026548,-0.05243 -0.298908,-0.09221 -0.025595,-0.01058 -0.05057,-0.0226 -0.075855,-0.0339 -0.084149,-0.04366 -0.1680327,-0.09461 -0.2249484,-0.172565 -0.034255,-0.04692 -0.038943,-0.0662 -0.061541,-0.119106 -0.045408,-0.136875 -0.048369,-0.282351 -0.05132,-0.425151 7.08e-4,-0.0902 0.00637,-0.180606 0.022151,-0.269539 0.00706,-0.0398 0.016375,-0.07369 0.026268,-0.112776 0.025502,-0.08903 0.072626,-0.167521 0.1283025,-0.240557 0.050544,-0.05506 -0.00667,0.0064 0.03534,-0.0365 0.00345,-0.0035 0.00612,-0.0078 0.00989,-0.01101 0.00172,-0.0015 0.00827,-0.0035 0.00623,-0.0026 -0.4145862,0.190093 -0.3637737,0.04509 -0.4146045,0.199172 -0.016241,0.08431 -0.012718,0.17094 -0.010041,0.256283 0.028152,0.221705 0.066303,0.44184 0.1116624,0.660615 0.048349,0.200687 0.1173516,0.395132 0.2013774,0.583439 0.043035,0.08721 0.086286,0.175189 0.1437048,0.254101 0.033508,0.04605 0.041104,0.05201 0.079247,0.09363 0.056627,0.05656 0.1140486,0.114088 0.1819851,0.157161 0.1392879,0.08358 0.039824,0.02869 0.4036872,-0.210787 0.0034,-0.0022 -0.049381,-0.08704 -0.052834,-0.09288 -0.02029,-0.03113 -0.036702,-0.06507 -0.058667,-0.09513 -0.026514,-0.03628 -0.058579,-0.06902 -0.088935,-0.102011 -0.0372,-0.04017 -0.078927,-0.07646 -0.1138845,-0.118722 -0.016086,-0.01945 -0.025083,-0.03387 -0.039205,-0.05477 -0.041514,-0.06473 -0.064304,-0.132921 -0.081332,-0.207373 -0.020641,-0.101492 -0.027988,-0.205065 -0.037467,-0.308034 -0.00867,-0.08576 -0.017634,-0.171566 -0.022234,-0.257649 -0.00193,-0.07898 -0.00535,-0.158778 0.00467,-0.237417 0.00203,-0.01597 0.00514,-0.03179 0.00771,-0.04768 0.016061,-0.07221 0.037656,-0.144883 0.070204,-0.211595 0.00329,-0.005 0.00528,-0.01122 0.00989,-0.01509 0.00272,-0.0023 0.013626,-0.0036 0.010458,-0.002 -0.1338189,0.06775 -0.2701686,0.130537 -0.4027665,0.200648 -0.0053,0.0028 -0.00557,0.01066 -0.00755,0.01631 -0.00353,0.01005 -0.00568,0.02054 -0.00896,0.03067 -0.00399,0.01234 -0.00856,0.02448 -0.012843,0.03673 -0.025142,0.06604 -0.049867,0.132744 -0.067733,0.20121 -0.010193,0.03906 -0.017001,0.07624 -0.02486,0.115759 -0.012545,0.06447 -0.018183,0.131534 -0.00332,0.196196 0.00878,0.03817 0.017418,0.05481 0.032338,0.09095 0.01575,0.02868 0.029911,0.05789 0.051094,0.08323 0.052219,0.06246 0.1248753,0.09673 0.1964925,0.131398 0.1030983,0.04567 0.2066265,0.09045 0.3077067,0.140486 0.065362,0.03344 0.1259826,0.07522 0.1864245,0.116678 0.058913,0.04585 0.1283373,0.07311 0.1963053,0.102183 0,0 0.3526362,-0.235333 0.3526362,-0.235333 v 0 c -0.065031,-0.02692 -0.1295412,-0.05549 -0.1848825,-0.09994 -0.064102,-0.04156 -0.1258461,-0.08818 -0.1968768,-0.117552 -0.1040571,-0.04608 -0.2069457,-0.09485 -0.3129024,-0.136519 -0.1022859,-0.04891 -0.1732236,-0.0859 -0.22413,-0.192199 -0.013691,-0.03585 -0.019133,-0.04541 -0.026496,-0.08291 -0.011719,-0.05968 -0.00592,-0.120896 0.00413,-0.180316 0.010023,-0.0511 0.010662,-0.06034 0.025569,-0.111249 0.02043,-0.06977 0.049927,-0.136037 0.077475,-0.203146 1.5e-4,-3.78e-4 0.027247,-0.06945 0.028392,-0.07314 0.00304,-0.0098 0.016412,-0.03348 0.00677,-0.03 -0.5900595,0.212853 -0.3545316,0.03239 -0.4092816,0.200648 -0.021946,0.07058 -0.043229,0.141693 -0.054175,0.214962 -0.0023,0.01679 -0.00513,0.03352 -0.00691,0.05037 -0.00852,0.08055 -0.00478,0.161865 -0.00321,0.242637 1.5e-4,0.0046 0.00263,0.08644 0.00306,0.0923 0.00405,0.05567 0.01784,0.110338 0.022964,0.165896 0.010235,0.104626 0.017524,0.209797 0.037973,0.313108 0.00686,0.03594 0.010307,0.05937 0.020746,0.09406 0.01404,0.04665 0.036891,0.09009 0.062531,0.131285 0.014627,0.02164 0.026188,0.04003 0.043232,0.05998 0.035859,0.04198 0.080719,0.07538 0.1180905,0.115916 0.052558,0.05786 0.1023504,0.120073 0.1346175,0.19181 0.00654,0.01437 0.015738,0.03382 0.021503,0.04902 0.0017,0.0045 0.00898,0.01242 0.00436,0.01371 -0.00485,0.0014 -0.012704,-0.01002 -0.00837,-0.01259 0.3033474,-0.179857 0.5227554,-0.263257 0.3741414,-0.206413 -0.0062,-0.0011 -0.012687,-0.0012 -0.018604,-0.0034 -0.017006,-0.0062 -0.043043,-0.0234 -0.056739,-0.033 -0.04039,-0.0283 -0.078576,-0.05999 -0.1136937,-0.09461 -0.013349,-0.01371 -0.02735,-0.02681 -0.040048,-0.04113 -0.076465,-0.08619 -0.1361514,-0.18603 -0.1889412,-0.287895 -0.031237,-0.06317 -0.049045,-0.09694 -0.076833,-0.162666 -0.055595,-0.131508 -0.096703,-0.268573 -0.1304952,-0.407148 -0.041049,-0.183617 -0.083152,-0.373089 -0.090325,-0.561712 -0.00127,-0.03335 6.96e-4,-0.06675 0.00104,-0.100127 0.00566,-0.08611 0.00842,-0.17619 0.043187,-0.25657 0.059123,-0.149746 0.01158,-0.02015 -0.4005543,0.159261 -0.00144,6.27e-4 -2.1e-4,0.0032 -0.001,0.0046 -0.00954,0.01639 -0.025221,0.02951 -0.033367,0.04686 -0.048906,0.07783 -0.090374,0.159834 -0.1108242,0.250186 -0.027932,0.128253 -0.039917,0.255881 -0.0349,0.387286 0.00315,0.148569 0.0053,0.299223 0.055884,0.440945 0.024134,0.05437 0.032586,0.08091 0.067759,0.12974 0.060542,0.08404 0.1499676,0.137698 0.240576,0.183874 0.0736,0.0338 0.1475886,0.06696 0.2223411,0.09817 0.062848,0.02623 0.04386,0.01569 0.098997,0.04049 0.00955,0.0043 0.01886,0.0091 0.028289,0.01369 z" />
  <rect
     style="fill:#ffffff;fill-opacity:1;stroke:none;stroke-width:3.0275;stroke-linecap:square;stroke-linejoin:bevel;stroke-dasharray:none;stroke-opacity:1;paint-order:stroke fill markers"
     id="rect20"
     width="4.7263422"
     height="2.0003631"
     x="5.9335041"
     y="12.997079" />
</svg>
