<?xml version="1.0" encoding="UTF-8" standalone="no"?>
<!-- Uploaded to: SVG Repo, www.svgrepo.com, Generator: SVG Repo Mixer Tools -->

<svg
   fill="white"
   width="800px"
   height="800px"
   viewBox="-5.5 0 19 19"
   class="cf-icon-svg question-mark-icon"
   version="1.1"
   id="svg1"
   sodipodi:docname="questionMarkLightMode.svg"
   inkscape:version="1.3 (0e150ed6c4, 2023-07-21)"
   xmlns:inkscape="http://www.inkscape.org/namespaces/inkscape"
   xmlns:sodipodi="http://sodipodi.sourceforge.net/DTD/sodipodi-0.dtd"
   xmlns="http://www.w3.org/2000/svg"
   xmlns:svg="http://www.w3.org/2000/svg">
  <defs
     id="defs1" />
  <sodipodi:namedview
     id="namedview1"
     pagecolor="#ffffff"
     bordercolor="#111111"
     borderopacity="1"
     inkscape:showpageshadow="0"
     inkscape:pageopacity="0"
     inkscape:pagecheckerboard="1"
     inkscape:deskcolor="#d1d1d1"
     inkscape:zoom="1.46625"
     inkscape:cx="399.65899"
     inkscape:cy="400"
     inkscape:window-width="2560"
     inkscape:window-height="1369"
     inkscape:window-x="2552"
     inkscape:window-y="-8"
     inkscape:window-maximized="1"
     inkscape:current-layer="svg1" />
  <path
     d="M7.987 5.653a4.536 4.536 0 0 1-.149 1.213 4.276 4.276 0 0 1-.389.958 5.186 5.186 0 0 1-.533.773c-.195.233-.386.454-.568.658l-.024.026c-.17.18-.328.353-.468.516a3.596 3.596 0 0 0-.4.567 2.832 2.832 0 0 0-.274.677 3.374 3.374 0 0 0-.099.858v.05a1.03 1.03 0 0 1-2.058 0v-.05a5.427 5.427 0 0 1 .167-1.385 4.92 4.92 0 0 1 .474-1.17 5.714 5.714 0 0 1 .63-.89c.158-.184.335-.38.525-.579.166-.187.34-.39.52-.603a3.108 3.108 0 0 0 .319-.464 2.236 2.236 0 0 0 .196-.495 2.466 2.466 0 0 0 .073-.66 1.891 1.891 0 0 0-.147-.762 1.944 1.944 0 0 0-.416-.633 1.917 1.917 0 0 0-.62-.418 1.758 1.758 0 0 0-.723-.144 1.823 1.823 0 0 0-.746.146 1.961 1.961 0 0 0-1.06 1.062 1.833 1.833 0 0 0-.146.747v.028a1.03 1.03 0 1 1-2.058 0v-.028a3.882 3.882 0 0 1 .314-1.56 4.017 4.017 0 0 1 2.135-2.139 3.866 3.866 0 0 1 1.561-.314 3.792 3.792 0 0 1 1.543.314A3.975 3.975 0 0 1 7.678 4.09a3.933 3.933 0 0 1 .31 1.563zm-2.738 9.81a1.337 1.337 0 0 1 0 1.033 1.338 1.338 0 0 1-.71.71l-.005.003a1.278 1.278 0 0 1-.505.103 1.338 1.338 0 0 1-1.244-.816 1.313 1.313 0 0 1 .284-1.451 1.396 1.396 0 0 1 .434-.283 1.346 1.346 0 0 1 .526-.105 1.284 1.284 0 0 1 .505.103l.005.003a1.404 1.404 0 0 1 .425.281 1.28 1.28 0 0 1 .285.418z"
     id="path1" />
</svg>
